<?xml version="1.0" encoding="UTF-8" standalone="no"?>
<!-- Created with Inkscape (http://www.inkscape.org/) -->

<svg
   width="2428.1951"
   height="485"
   viewBox="0 0 2428.1951 485"
   version="1.1"
   id="svg1"
   sodipodi:docname="tube_bottom.svg"
   inkscape:version="1.3 (0e150ed6c4, 2023-07-21)"
   xmlns:inkscape="http://www.inkscape.org/namespaces/inkscape"
   xmlns:sodipodi="http://sodipodi.sourceforge.net/DTD/sodipodi-0.dtd"
   xmlns="http://www.w3.org/2000/svg"
   xmlns:svg="http://www.w3.org/2000/svg">
  <sodipodi:namedview
     id="namedview1"
     pagecolor="#505050"
     bordercolor="#ffffff"
     borderopacity="1"
     inkscape:showpageshadow="0"
     inkscape:pageopacity="0"
     inkscape:pagecheckerboard="1"
     inkscape:deskcolor="#505050"
     inkscape:document-units="px"
     inkscape:zoom="8.0000001"
     inkscape:cx="2296.875"
     inkscape:cy="42.312499"
     inkscape:window-width="1920"
     inkscape:window-height="1017"
     inkscape:window-x="-8"
     inkscape:window-y="-8"
     inkscape:window-maximized="1"
     inkscape:current-layer="g138" />
  <defs
     id="defs1">
    <clipPath
       clipPathUnits="userSpaceOnUse"
       id="clipPath2">
      <path
         id="path2"
         style="fill:#ff0000;fill-opacity:1;fill-rule:nonzero;stroke:none"
         d="m -137.17578,2500.9512 v 465.125 H 2290.1914 v -465.125 h -107.5 c 0,0.024 0,0.048 0,0.072 -0.053,0.9186 -0.1157,1.836 -0.1777,2.7539 -0.083,1.2347 -1.3311,1.1507 -1.2481,-0.084 0.061,-0.9111 0.1248,-1.8208 0.1778,-2.7325 10e-5,-0 -2e-4,-0.01 0,-0.01 z" />
    </clipPath>
    <clipPath
       clipPathUnits="userSpaceOnUse"
       id="clipPath60">
      <path
         id="path61"
         style="fill:#ff0000;fill-opacity:1;fill-rule:nonzero;stroke:none"
         d="M 0.82421875,0.08007812 V 484.07617 H 2428.1914 V 0.08007812 Z M 2317.625,1.6503906 c 0.312,8.937e-4 0.625,0.3079611 0.625,0.9257813 v 0.5097656 c 0,-0.618713 0.3125,-0.9277344 0.625,-0.9277344 0.3125,0 0.625,0.3090214 0.625,0.9277344 v 0.8027344 c 0.028,-0.00551 0.022,-0.085685 0.051,-0.085937 0.3087,0.00447 0.6413,0.3079539 0.6953,0.9199218 0.042,0.4789896 0.062,0.9590557 0.08,1.4394532 0,0.1483943 0,0.2968685 0.01,0.4453125 0.054,-0.019938 0.1101,-0.03125 0.1661,-0.03125 0.2973,0 0.5928,0.2815117 0.621,0.8417969 0.083,0.1359599 0.2372,0.1093836 0.2559,0.3417968 0.01,0.1104693 0.026,0.2199565 0.037,0.3300782 0.1041,-0.09273 0.2269,-0.1386723 0.3477,-0.1386719 0.3126,9e-7 0.6208,0.3110482 0.6113,0.9296875 -0.011,0.7642578 0.013,1.5274081 0.041,2.2910151 0.039,0.663926 0.099,1.326762 0.1445,1.990235 0.031,0.288778 0.015,0.144391 0.049,0.429688 0.028,0.231114 -0.1824,0.08763 -0.2364,0.240233 v 0.128907 c -0.02,0.64162 -0.2151,1.257964 -0.3867,1.871093 -0.1747,0.628984 -0.3374,1.262697 -0.5156,1.890625 -0.083,0.338701 -0.1954,0.669074 -0.3047,1 -0.05,0.15256 -0.1564,0.103785 -0.2285,0.205078 0.3003,0.158935 0.5292,0.483707 0.3926,0.945313 -0.094,0.316548 -0.2829,0.568888 -0.5274,0.783203 -0.2271,0.199155 -0.3533,0.178542 -0.4238,0.04883 v 0.845703 c 0,0.687223 -0.3143,0.785853 -0.625,0.654297 -0.014,0.197784 -0.1807,0.143994 -0.2695,0.238281 v 0.002 c -0.016,0.171792 -0.094,0.372985 -0.2559,0.591797 -0.1589,0.215161 -0.3477,0.405747 -0.541,0.589844 -0.2134,0.20328 -0.376,0.140431 -0.5625,0.167969 -0.01,1.223469 -1.25,1.219096 -1.25,-0.01367 v -0.455078 c 0,-0.243499 0.049,-0.440111 0.127,-0.587891 v -0.30664 -1.082032 -1.398437 -1.09375 -1.296875 -1.65625 -1.712891 -1.83789 V 11.083984 9.7324219 7.8105469 5.71875 3.84375 2.5761719 c 0,-0.6172166 0.3113,-0.924287 0.623,-0.9257813 z m 2.7461,8.4042974 c 0,0.305979 -10e-4,0.611988 0.01,0.917968 0.011,-0.01135 0.022,-0.02302 0.033,-0.0332 -0.014,-0.294934 -0.016,-0.590453 -0.039,-0.884765 z M 2318.25,22.21875 v 0.05469 c 0.01,-0.0071 0.014,-0.01461 0.019,-0.02148 -6e-4,-0.0199 -0.019,-0.01262 -0.019,-0.0332 z" />
    </clipPath>
  </defs>
  <g
     inkscape:label="Capa 1"
     inkscape:groupmode="layer"
     id="layer1"
     clip-path="url(#clipPath60)">
    <g
       id="g138"
       transform="translate(138,-2482)">
      <path
         style="fill:none;fill-opacity:1;stroke:#000000;stroke-width:23.4621;stroke-linecap:round;stroke-linejoin:bevel;stroke-dasharray:none;paint-order:markers fill stroke"
         d="m 4.6851872,2507.0118 c -17.3772952,54.9961 620.8080528,289.3078 1053.7687128,291.9473 523.1885,3.1903 1121.7552,-271.4688 1101.4093,-292.6975"
         id="path9"
         sodipodi:nodetypes="csc" />
      <path
         style="opacity:1;fill:#7493dd;fill-opacity:1;fill-rule:nonzero;stroke:none;stroke-width:1.81689;stroke-linecap:round;stroke-linejoin:bevel;stroke-dasharray:none;stroke-opacity:1;paint-order:markers fill stroke"
         d="M -137.1753,2733.5131 V 2500.951 l 65.862312,0.026 65.8623138,0.026 4.96910531,9.0102 C 30.76183,2566.6658 349.75189,2685.9071 643.17956,2750.6197 c 222.62834,49.0985 392.30044,63.8851 564.14474,49.1642 262.8544,-22.5173 575.1374,-111.1383 886.6431,-251.6155 60.4167,-27.2457 85.0652,-39.4728 87.5303,-43.4203 2.3177,-3.711 3.5769,-3.7971 55.5326,-3.7971 h 53.1613 v 232.5621 232.5621 H 1076.5082 -137.1753 Z"
         id="path140"
         clip-path="url(#clipPath2)" />
    </g>
  </g>
</svg>
