<?xml version="1.0" encoding="UTF-8" standalone="no"?>
<!-- Created with Inkscape (http://www.inkscape.org/) -->

<svg
   width="65mm"
   height="64mm"
   viewBox="0 0 65 64"
   version="1.1"
   id="svg1"
   inkscape:version="1.3 (0e150ed6c4, 2023-07-21)"
   sodipodi:docname="tube_bubbles_background.svg"
   xmlns:inkscape="http://www.inkscape.org/namespaces/inkscape"
   xmlns:sodipodi="http://sodipodi.sourceforge.net/DTD/sodipodi-0.dtd"
   xmlns="http://www.w3.org/2000/svg"
   xmlns:svg="http://www.w3.org/2000/svg">
  <sodipodi:namedview
     id="namedview1"
     pagecolor="#505050"
     bordercolor="#ffffff"
     borderopacity="1"
     inkscape:showpageshadow="0"
     inkscape:pageopacity="0"
     inkscape:pagecheckerboard="1"
     inkscape:deskcolor="#505050"
     inkscape:document-units="mm"
     inkscape:zoom="2"
     inkscape:cx="194.5"
     inkscape:cy="99.25"
     inkscape:window-width="1920"
     inkscape:window-height="1017"
     inkscape:window-x="-8"
     inkscape:window-y="-8"
     inkscape:window-maximized="1"
     inkscape:current-layer="layer1" />
  <defs
     id="defs1" />
  <g
     inkscape:label="Capa 1"
     inkscape:groupmode="layer"
     id="layer1">
    <rect
       style="fill:none;stroke:none;stroke-width:0.02645833;stroke-linecap:round;stroke-linejoin:miter;stroke-dasharray:none;paint-order:normal;stroke-miterlimit:5;fill-opacity:1;stroke-opacity:1"
       id="rect7"
       width="64.974709"
       height="63.97274"
       x="0.013435872"
       y="0.014469401" />
    <ellipse
       style="fill:none;fill-opacity:1;stroke:#000000;stroke-width:0.132292;stroke-linecap:round;stroke-linejoin:miter;stroke-miterlimit:5;stroke-dasharray:none;stroke-opacity:1;paint-order:stroke markers fill"
       id="path10"
       cx="4.3988848"
       cy="8.9568691"
       rx="3.8820899"
       ry="3.9756341" />
    <ellipse
       style="fill:none;fill-opacity:1;stroke:#000000;stroke-width:0.132292;stroke-linecap:round;stroke-linejoin:miter;stroke-miterlimit:5;stroke-dasharray:none;stroke-opacity:1;paint-order:stroke markers fill"
       id="ellipse11"
       cx="58.288818"
       cy="9.7272329"
       rx="3.8820899"
       ry="3.9756341" />
    <ellipse
       style="fill:none;fill-opacity:1;stroke:#000000;stroke-width:0.132292;stroke-linecap:round;stroke-linejoin:miter;stroke-miterlimit:5;stroke-dasharray:none;stroke-opacity:1;paint-order:stroke markers fill"
       id="ellipse12"
       cx="12.383605"
       cy="45.975151"
       rx="3.8820899"
       ry="3.9756341" />
    <ellipse
       style="fill:none;fill-opacity:1;stroke:#000000;stroke-width:0.132292;stroke-linecap:round;stroke-linejoin:miter;stroke-miterlimit:5;stroke-dasharray:none;stroke-opacity:1;paint-order:stroke markers fill"
       id="ellipse13"
       cx="33.55027"
       cy="19.516817"
       rx="3.8820899"
       ry="3.9756341" />
    <ellipse
       style="fill:none;fill-opacity:1;stroke:#000000;stroke-width:0.132292;stroke-linecap:round;stroke-linejoin:miter;stroke-miterlimit:5;stroke-dasharray:none;stroke-opacity:1;paint-order:stroke markers fill"
       id="ellipse14"
       cx="55.775284"
       cy="54.441849"
       rx="3.8820899"
       ry="3.9756341" />
    <ellipse
       style="fill:none;fill-opacity:1;stroke:#000000;stroke-width:0.061769;stroke-linecap:round;stroke-linejoin:miter;stroke-miterlimit:5;stroke-dasharray:none;stroke-opacity:1;paint-order:stroke markers fill"
       id="ellipse15"
       cx="32.503864"
       cy="36.412231"
       rx="1.8126038"
       ry="1.8562809" />
    <ellipse
       style="fill:none;fill-opacity:1;stroke:#000000;stroke-width:0.061769;stroke-linecap:round;stroke-linejoin:miter;stroke-miterlimit:5;stroke-dasharray:none;stroke-opacity:1;paint-order:stroke markers fill"
       id="ellipse16"
       cx="11.337199"
       cy="25.828899"
       rx="1.8126038"
       ry="1.8562809" />
    <ellipse
       style="fill:none;fill-opacity:1;stroke:#000000;stroke-width:0.061769;stroke-linecap:round;stroke-linejoin:miter;stroke-miterlimit:5;stroke-dasharray:none;stroke-opacity:1;paint-order:stroke markers fill"
       id="ellipse17"
       cx="6.0455327"
       cy="60.224743"
       rx="1.8126038"
       ry="1.8562809" />
    <ellipse
       style="fill:none;fill-opacity:1;stroke:#000000;stroke-width:0.061769;stroke-linecap:round;stroke-linejoin:miter;stroke-miterlimit:5;stroke-dasharray:none;stroke-opacity:1;paint-order:stroke markers fill"
       id="ellipse18"
       cx="43.0872"
       cy="7.3080716"
       rx="1.8126038"
       ry="1.8562809" />
    <ellipse
       style="fill:none;fill-opacity:1;stroke:#000000;stroke-width:0.061769;stroke-linecap:round;stroke-linejoin:miter;stroke-miterlimit:5;stroke-dasharray:none;stroke-opacity:1;paint-order:stroke markers fill"
       id="ellipse19"
       cx="27.212198"
       cy="12.599738"
       rx="1.8126038"
       ry="1.8562809" />
    <ellipse
       style="fill:none;fill-opacity:1;stroke:#000000;stroke-width:0.061769;stroke-linecap:round;stroke-linejoin:miter;stroke-miterlimit:5;stroke-dasharray:none;stroke-opacity:1;paint-order:stroke markers fill"
       id="ellipse20"
       cx="20.692533"
       cy="3.2673361"
       rx="1.8126038"
       ry="1.8562809" />
    <ellipse
       style="fill:none;fill-opacity:1;stroke:#000000;stroke-width:0.061769;stroke-linecap:round;stroke-linejoin:miter;stroke-miterlimit:5;stroke-dasharray:none;stroke-opacity:1;paint-order:stroke markers fill"
       id="ellipse21"
       cx="21.259069"
       cy="60.753914"
       rx="1.8126038"
       ry="1.8562809" />
    <ellipse
       style="fill:none;fill-opacity:1;stroke:#000000;stroke-width:0.061769;stroke-linecap:round;stroke-linejoin:miter;stroke-miterlimit:5;stroke-dasharray:none;stroke-opacity:1;paint-order:stroke markers fill"
       id="ellipse22"
       cx="40.970528"
       cy="58.108078"
       rx="1.8126038"
       ry="1.8562809" />
    <ellipse
       style="fill:none;fill-opacity:1;stroke:#000000;stroke-width:0.061769;stroke-linecap:round;stroke-linejoin:miter;stroke-miterlimit:5;stroke-dasharray:none;stroke-opacity:1;paint-order:stroke markers fill"
       id="ellipse23"
       cx="56.845531"
       cy="36.941406"
       rx="1.8126038"
       ry="1.8562809" />
    <ellipse
       style="fill:none;fill-opacity:1;stroke:#000000;stroke-width:0.061769;stroke-linecap:round;stroke-linejoin:miter;stroke-miterlimit:5;stroke-dasharray:none;stroke-opacity:1;paint-order:stroke markers fill"
       id="ellipse24"
       cx="51.553864"
       cy="21.066408"
       rx="1.8126038"
       ry="1.8562809" />
    <ellipse
       style="fill:none;fill-opacity:1;stroke:#000000;stroke-width:0.0122458;stroke-linecap:round;stroke-linejoin:miter;stroke-miterlimit:5;stroke-dasharray:none;stroke-opacity:1;paint-order:stroke markers fill"
       id="ellipse25"
       cx="51.134182"
       cy="20.082546"
       rx="0.35935274"
       ry="0.3680118" />
    <ellipse
       style="fill:none;fill-opacity:1;stroke:#000000;stroke-width:0.0108966;stroke-linecap:round;stroke-linejoin:miter;stroke-miterlimit:5;stroke-dasharray:none;stroke-opacity:1;paint-order:stroke markers fill"
       id="ellipse26"
       cx="56.385586"
       cy="36.073071"
       rx="0.31976056"
       ry="0.32746562" />
    <ellipse
       style="fill:none;fill-opacity:1;stroke:#000000;stroke-width:0.00480176;stroke-linecap:round;stroke-linejoin:miter;stroke-miterlimit:5;stroke-dasharray:none;stroke-opacity:1;paint-order:stroke markers fill"
       id="ellipse27"
       cx="31.862011"
       cy="35.730114"
       rx="0.14090697"
       ry="0.14430231" />
    <ellipse
       style="fill:none;fill-opacity:1;stroke:#000000;stroke-width:0.0351328;stroke-linecap:round;stroke-linejoin:miter;stroke-miterlimit:5;stroke-dasharray:none;stroke-opacity:1;paint-order:stroke markers fill"
       id="ellipse28"
       cx="11.395945"
       cy="44.673275"
       rx="1.0309678"
       ry="1.0558103" />
    <ellipse
       style="fill:none;fill-opacity:1;stroke:#000000;stroke-width:0.0132515;stroke-linecap:round;stroke-linejoin:miter;stroke-miterlimit:5;stroke-dasharray:none;stroke-opacity:1;paint-order:stroke markers fill"
       id="ellipse29"
       cx="10.947527"
       cy="24.875769"
       rx="0.38886309"
       ry="0.39823326" />
    <ellipse
       style="fill:none;fill-opacity:1;stroke:#000000;stroke-width:0.0273316;stroke-linecap:round;stroke-linejoin:miter;stroke-miterlimit:5;stroke-dasharray:none;stroke-opacity:1;paint-order:stroke markers fill"
       id="ellipse30"
       cx="32.534409"
       cy="17.897608"
       rx="0.80204129"
       ry="0.8213675" />
    <ellipse
       style="fill:none;fill-opacity:1;stroke:#000000;stroke-width:0.0114507;stroke-linecap:round;stroke-linejoin:miter;stroke-miterlimit:5;stroke-dasharray:none;stroke-opacity:1;paint-order:stroke markers fill"
       id="ellipse31"
       cx="26.768776"
       cy="11.71447"
       rx="0.33601999"
       ry="0.34411684" />
    <ellipse
       style="fill:none;fill-opacity:1;stroke:#000000;stroke-width:0.0115602;stroke-linecap:round;stroke-linejoin:miter;stroke-miterlimit:5;stroke-dasharray:none;stroke-opacity:1;paint-order:stroke markers fill"
       id="ellipse32"
       cx="42.647045"
       cy="6.4194617"
       rx="0.33923271"
       ry="0.34740695" />
    <ellipse
       style="fill:none;fill-opacity:1;stroke:#000000;stroke-width:0.0144982;stroke-linecap:round;stroke-linejoin:miter;stroke-miterlimit:5;stroke-dasharray:none;stroke-opacity:1;paint-order:stroke markers fill"
       id="ellipse33"
       cx="5.4946232"
       cy="59.607353"
       rx="0.42544678"
       ry="0.43569848" />
    <ellipse
       style="fill:none;fill-opacity:1;stroke:#000000;stroke-width:0.0242935;stroke-linecap:round;stroke-linejoin:miter;stroke-miterlimit:5;stroke-dasharray:none;stroke-opacity:1;paint-order:stroke markers fill"
       id="ellipse36"
       cx="54.668747"
       cy="52.597099"
       rx="0.71288991"
       ry="0.73006791" />
    <path
       style="opacity:1;fill:#00d4aa;fill-opacity:1;stroke:#000000;stroke-width:0.015625;stroke-linecap:round;stroke-linejoin:miter;stroke-miterlimit:5;stroke-dasharray:none;stroke-opacity:1;paint-order:stroke markers fill"
       d="m 154.35837,226.48545 c -1.60208,-0.13112 -3.04933,-0.80103 -4.18713,-1.93816 -1.13272,-1.13205 -1.83665,-2.61249 -2.00123,-4.20879 -0.0469,-0.4551 -0.022,-1.41115 0.0476,-1.82288 0.34789,-2.05991 1.51282,-3.78757 3.26681,-4.8449 1.94748,-1.17396 4.39934,-1.23848 6.42995,-0.1692 0.77461,0.40789 1.46993,0.97567 2.06468,1.68598 0.79425,0.94858 1.3347,2.18003 1.52232,3.46875 0.073,0.5013 0.0738,1.39822 0.002,1.90625 -0.36127,2.54728 -2.03183,4.65809 -4.37808,5.53183 -0.83846,0.31224 -1.89881,0.46214 -2.76663,0.39112 z m -1.68556,-8.94639 c 0.51945,-0.26242 0.33095,-1.05469 -0.25094,-1.05469 -0.25824,0 -0.46495,0.16005 -0.53297,0.41265 -0.0946,0.35142 0.17409,0.70943 0.53417,0.71167 0.0608,3.8e-4 0.17319,-0.031 0.24974,-0.0696 z"
       id="path36"
       transform="scale(0.26458333)" />
    <path
       style="opacity:1;fill:#80ffe6;fill-opacity:1;stroke:#000000;stroke-width:0.0141952;stroke-linecap:round;stroke-linejoin:miter;stroke-miterlimit:5;stroke-dasharray:none;stroke-opacity:1;paint-order:stroke markers fill"
       d="m 40.31649,57.75899 c -0.196597,-0.08531 -0.2913,-0.227568 -0.2913,-0.437687 0,-0.424864 0.481784,-0.638672 0.776065,-0.344391 0.249007,0.24901 0.185599,0.63054 -0.128493,0.773193 -0.139607,0.06342 -0.225634,0.06559 -0.356274,0.009 z"
       id="path37" />
    <path
       style="opacity:1;fill:#80ffe6;fill-opacity:1;stroke:#000000;stroke-width:0.0883883;stroke-linecap:round;stroke-linejoin:miter;stroke-miterlimit:5;stroke-dasharray:none;stroke-opacity:1;paint-order:stroke markers fill"
       d="m 41.373968,172.22077 c -2.70163,-1.53021 -2.657979,-5.34843 0.07768,-6.79508 2.371392,-1.25402 5.28921,0.59375 5.301902,3.35754 0.01303,2.83689 -3.019194,4.77448 -5.379585,3.43754 z"
       id="path38"
       transform="scale(0.26458333)" />
    <path
       style="opacity:1;fill:#80ffe6;fill-opacity:1;stroke:#000000;stroke-width:0.0883883;stroke-linecap:round;stroke-linejoin:miter;stroke-miterlimit:5;stroke-dasharray:none;stroke-opacity:1;paint-order:stroke markers fill"
       d="m 20.417708,226.76627 c -0.62497,-0.22429 -1.06062,-0.82344 -1.055038,-1.45099 0.0062,-0.6959 0.235692,-1.08621 0.822446,-1.39872 0.571324,-0.30429 0.85334,-0.25549 1.456466,0.252 0.428657,0.36069 0.543893,0.59762 0.543893,1.11824 0,0.94086 -0.980966,1.76185 -1.767767,1.47947 z"
       id="path39"
       transform="scale(0.26458333)" />
    <path
       style="opacity:1;fill:#80ffe6;fill-opacity:1;stroke:#000000;stroke-width:0.0169863;stroke-linecap:round;stroke-linejoin:miter;stroke-miterlimit:5;stroke-dasharray:none;stroke-opacity:1;paint-order:stroke markers fill"
       d="m 31.902784,35.973761 c -0.104437,-0.03797 -0.237646,-0.195506 -0.258256,-0.305347 -0.0452,-0.240744 0.131165,-0.452117 0.37716,-0.452117 0.180293,0 0.30763,0.09456 0.359218,0.266743 0.08578,0.286298 -0.208858,0.588693 -0.478122,0.490721 z"
       id="path40" />
    <path
       style="opacity:1;fill:#80ffe6;fill-opacity:1;stroke:#000000;stroke-width:0.0220971;stroke-linecap:round;stroke-linejoin:miter;stroke-miterlimit:5;stroke-dasharray:none;stroke-opacity:1;paint-order:stroke markers fill"
       d="m 206.27056,201.4575 c -0.59084,-0.0904 -1.02581,-0.31615 -1.47971,-0.76813 -0.52358,-0.52137 -0.78252,-1.15237 -0.78132,-1.90398 10e-4,-0.75096 0.25875,-1.37421 0.78558,-1.90104 1.30368,-1.30368 3.41662,-0.90971 4.19668,0.7825 0.39505,0.85697 0.30935,1.87522 -0.22345,2.655 -0.55942,0.81874 -1.56886,1.27769 -2.49778,1.13565 z"
       id="path41"
       transform="scale(0.26458333)" />
    <path
       style="opacity:1;fill:#80ffe6;fill-opacity:1;stroke:#000000;stroke-width:0.0220971;stroke-linecap:round;stroke-linejoin:miter;stroke-miterlimit:5;stroke-dasharray:none;stroke-opacity:1;paint-order:stroke markers fill"
       d="m 212.8937,137.5056 c -0.57719,-0.13361 -0.93316,-0.5787 -0.93299,-1.16657 1.4e-4,-0.49165 0.22973,-0.85875 0.67758,-1.08342 0.23706,-0.11893 0.64916,-0.13284 0.89424,-0.0302 0.41686,0.17461 0.74292,0.66336 0.74292,1.11361 0,0.72376 -0.70896,1.32231 -1.38175,1.16657 z"
       id="path42"
       transform="scale(0.26458333)" />
    <path
       style="opacity:1;fill:#80ffe6;fill-opacity:1;stroke:#000000;stroke-width:0.0220971;stroke-linecap:round;stroke-linejoin:miter;stroke-miterlimit:5;stroke-dasharray:none;stroke-opacity:1;paint-order:stroke markers fill"
       d="m 192.7299,77.125138 c -0.44759,-0.208428 -0.77251,-0.722252 -0.77251,-1.221645 0,-0.499393 0.32492,-1.013216 0.77251,-1.221644 0.30819,-0.143518 0.75425,-0.143518 1.06245,0 0.27684,0.128918 0.60834,0.490436 0.70214,0.765735 0.0899,0.263833 0.0899,0.647985 0,0.911819 -0.0938,0.275299 -0.4253,0.636817 -0.70214,0.765735 -0.3082,0.143517 -0.75426,0.143517 -1.06245,0 z"
       id="path43"
       transform="scale(0.26458333)" />
    <path
       style="opacity:1;fill:#80ffe6;fill-opacity:1;stroke:#000000;stroke-width:0.03125;stroke-linecap:round;stroke-linejoin:miter;stroke-miterlimit:5;stroke-dasharray:none;stroke-opacity:1;paint-order:stroke markers fill"
       d="m 160.8125,25.459139 c -0.89439,-0.328368 -1.12634,-1.476402 -0.42976,-2.127038 0.2303,-0.215104 0.4614,-0.300851 0.81084,-0.300851 0.37025,0 0.64101,0.120628 0.8789,0.39158 0.6927,0.788935 0.22198,1.998813 -0.81067,2.083641 -0.144,0.01183 -0.34619,-0.0095 -0.44931,-0.04733 z"
       id="path44"
       transform="scale(0.26458333)" />
    <path
       style="opacity:1;fill:#80ffe6;fill-opacity:1;stroke:#000000;stroke-width:0.03125;stroke-linecap:round;stroke-linejoin:miter;stroke-miterlimit:5;stroke-dasharray:none;stroke-opacity:1;paint-order:stroke markers fill"
       d="m 122.22529,70.561342 c -2.14524,-0.60233 -2.9141,-3.284573 -1.41838,-4.94817 0.58314,-0.648592 1.29421,-0.966559 2.15736,-0.964692 1.08398,0.0023 1.95115,0.50443 2.5254,1.46219 0.93702,1.562798 0.19002,3.716542 -1.51347,4.363621 -0.46176,0.175403 -1.28964,0.216563 -1.75091,0.08705 z"
       id="path45"
       transform="scale(0.26458333)" />
    <path
       style="opacity:1;fill:#80ffe6;fill-opacity:1;stroke:#000000;stroke-width:0.03125;stroke-linecap:round;stroke-linejoin:miter;stroke-miterlimit:5;stroke-dasharray:none;stroke-opacity:1;paint-order:stroke markers fill"
       d="m 100.82406,45.467696 c -0.860937,-0.258418 -1.137834,-1.4933 -0.47208,-2.105338 0.71394,-0.656328 1.85827,-0.243763 2.02265,0.729225 0.14349,0.849271 -0.72826,1.622936 -1.55057,1.376113 z"
       id="path46"
       transform="scale(0.26458333)" />
    <path
       style="opacity:1;fill:#00d4aa;fill-opacity:1;stroke:#000000;stroke-width:0.0441942;stroke-linecap:round;stroke-linejoin:miter;stroke-miterlimit:5;stroke-dasharray:none;stroke-opacity:1;paint-order:stroke markers fill"
       d="m 40.632655,95.225814 c -0.608497,-0.389633 -0.828293,-1.359432 -0.438054,-1.932812 0.288034,-0.42321 0.610861,-0.631177 1.058013,-0.681577 0.454718,-0.05125 0.777028,0.08634 1.169701,0.499341 0.221046,0.232489 0.265825,0.359054 0.292061,0.825484 0.03597,0.639521 -0.140518,1.011171 -0.618618,1.302672 -0.393866,0.240143 -1.077156,0.234021 -1.463103,-0.01311 z"
       id="path47"
       transform="scale(0.26458333)" />
    <path
       style="opacity:1;fill:#00d4aa;fill-opacity:1;stroke:#000000;stroke-width:0.125;stroke-linecap:round;stroke-linejoin:miter;stroke-miterlimit:5;stroke-dasharray:none;stroke-opacity:1;paint-order:stroke markers fill"
       d="m 21.123381,234.15641 c -3.665097,-1.20256 -5.610544,-4.99829 -4.481799,-8.74437 0.180299,-0.59838 0.809516,-1.62372 1.39826,-2.27855 3.276173,-3.64389 8.794032,-2.70406 10.862555,1.85017 0.614844,1.35369 0.617659,3.92404 0.0058,5.26634 -1.106621,2.42758 -3.132384,3.88144 -5.605616,4.02309 -0.853902,0.0489 -1.834527,-0.004 -2.179168,-0.11668 z m 0.530021,-7.29661 c 0.704516,-0.37705 1.014907,-1.33834 0.69977,-2.16721 -0.319586,-0.84058 -0.644487,-1.05884 -1.583487,-1.06376 -1.001828,-0.005 -1.644685,0.64356 -1.644685,1.65992 0,1.4482 1.276224,2.24119 2.528402,1.57105 z"
       id="path48"
       transform="scale(0.26458333)" />
    <path
       style="opacity:1;fill:#00d4aa;fill-opacity:1;stroke:#000000;stroke-width:0.0330729;stroke-linecap:round;stroke-linejoin:miter;stroke-miterlimit:5;stroke-dasharray:none;stroke-opacity:1;paint-order:stroke markers fill"
       d="m 20.802436,62.483049 c -0.969724,-0.318177 -1.484457,-1.322464 -1.185809,-2.313614 0.0477,-0.158322 0.214184,-0.429609 0.369956,-0.602867 0.866821,-0.964112 2.326754,-0.715449 2.874051,0.489525 0.162677,0.358161 0.163422,1.038235 0.0015,1.393385 -0.292794,0.642298 -0.828777,1.026965 -1.483153,1.064443 -0.225928,0.01294 -0.485385,-0.0011 -0.576571,-0.03087 z"
       id="path49" />
    <path
       style="opacity:1;fill:#00d4aa;fill-opacity:1;stroke:#000000;stroke-width:0.125;stroke-linecap:round;stroke-linejoin:miter;stroke-miterlimit:5;stroke-dasharray:none;stroke-opacity:1;paint-order:stroke markers fill"
       d="m 42.875,187.78882 c -2.500523,-0.74601 -4.044098,-1.68412 -6.009274,-3.65216 -2.837013,-2.84115 -4.240726,-6.26397 -4.240726,-10.3406 0,-4.12503 1.410602,-7.58678 4.247442,-10.42362 5.675094,-5.67509 14.104766,-5.67114 19.811119,0.009 3.653734,3.63714 5.110624,8.4185 4.066659,13.34637 -0.9649,4.55466 -3.870773,8.2813 -8.00022,10.2599 -3.183361,1.52529 -6.535467,1.79713 -9.875,0.80081 z m 2.384522,-15.43189 c 2.232543,-1.34397 2.471221,-5.12921 0.424916,-6.73884 -2.780237,-2.18693 -6.61713,-0.29844 -6.61713,3.25691 0,3.28942 3.36698,5.1827 6.192214,3.48193 z"
       id="path50"
       transform="scale(0.26458333)" />
    <path
       style="opacity:1;fill:#00d4aa;fill-opacity:1;stroke:#000000;stroke-width:0.125;stroke-linecap:round;stroke-linejoin:miter;stroke-miterlimit:5;stroke-dasharray:none;stroke-opacity:1;paint-order:stroke markers fill"
       d="m 121.12338,144.15641 c -3.6651,-1.20256 -5.61054,-4.99829 -4.4818,-8.74437 0.1803,-0.59838 0.80952,-1.62372 1.39826,-2.27855 3.27617,-3.64389 8.79403,-2.70406 10.86256,1.85017 0.61484,1.35369 0.61766,3.92404 0.006,5.26634 -1.10662,2.42758 -3.13238,3.88144 -5.60561,4.02309 -0.8539,0.0489 -1.83453,-0.004 -2.17917,-0.11668 z M 122.125,135.625 c 0.9265,-0.9265 0.50312,-2.32128 -0.79992,-2.63526 -0.52337,-0.12611 -0.81808,-0.0195 -1.3125,0.47495 -0.77036,0.77037 -0.80747,1.38368 -0.12784,2.11317 0.63576,0.68241 1.58501,0.70238 2.24026,0.0471 z"
       id="path51"
       transform="scale(0.26458333)" />
    <path
       style="opacity:1;fill:#00d4aa;fill-opacity:1;stroke:#000000;stroke-width:0.125;stroke-linecap:round;stroke-linejoin:miter;stroke-miterlimit:5;stroke-dasharray:none;stroke-opacity:1;paint-order:stroke markers fill"
       d="m 206.875,219.78882 c -2.50052,-0.74601 -4.0441,-1.68412 -6.00927,-3.65216 -2.83702,-2.84115 -4.24073,-6.26397 -4.24073,-10.3406 0,-4.12503 1.4106,-7.58678 4.24744,-10.42362 5.6751,-5.67509 14.10477,-5.67114 19.81112,0.009 3.65373,3.63714 5.11062,8.4185 4.06666,13.34637 -0.9649,4.55466 -3.87077,8.2813 -8.00022,10.2599 -3.18336,1.52529 -6.53547,1.79713 -9.875,0.80081 z m 1.21374,-18.52007 c 1.46448,-0.75731 1.75837,-3.10748 0.55677,-4.45231 C 208.00009,196.09409 207.76722,196 206.625,196 c -1.14223,0 -1.37509,0.0941 -2.02051,0.81644 -1.1923,1.33442 -0.90738,3.65301 0.54803,4.45968 0.78954,0.43761 2.082,0.43437 2.93622,-0.007 z"
       id="path52"
       transform="scale(0.26458333)" />
    <path
       style="opacity:1;fill:#00d4aa;fill-opacity:1;stroke:#000000;stroke-width:0.125;stroke-linecap:round;stroke-linejoin:miter;stroke-miterlimit:5;stroke-dasharray:none;stroke-opacity:1;paint-order:stroke markers fill"
       d="m 213.12338,146.15641 c -3.6651,-1.20256 -5.61054,-4.99829 -4.4818,-8.74437 0.1803,-0.59838 0.80952,-1.62372 1.39826,-2.27855 3.27617,-3.64389 8.79403,-2.70406 10.86256,1.85017 0.61484,1.35369 0.61766,3.92404 0.006,5.26634 -1.10662,2.42758 -3.13238,3.88144 -5.60561,4.02309 -0.8539,0.0489 -1.83453,-0.004 -2.17917,-0.11668 z M 214.075,137.325 c 0.52979,-0.52979 0.35598,-1.6518 -0.325,-2.09799 -0.57897,-0.37935 -0.67103,-0.37935 -1.25,0 -0.68098,0.44619 -0.85479,1.5682 -0.325,2.09799 0.38673,0.38673 1.51327,0.38673 1.9,0 z"
       id="path53"
       transform="scale(0.26458333)" />
    <path
       style="opacity:1;fill:#00d4aa;fill-opacity:1;stroke:#000000;stroke-width:0.125;stroke-linecap:round;stroke-linejoin:miter;stroke-miterlimit:5;stroke-dasharray:none;stroke-opacity:1;paint-order:stroke markers fill"
       d="m 193.12338,86.156406 c -3.6651,-1.202557 -5.61054,-4.998288 -4.4818,-8.744365 0.1803,-0.598377 0.80952,-1.623724 1.39826,-2.278549 3.27617,-3.643893 8.79403,-2.704065 10.86256,1.850164 0.61484,1.35369 0.61766,3.924048 0.006,5.266344 -1.10662,2.427577 -3.13238,3.881445 -5.60561,4.02309 -0.8539,0.0489 -1.83453,-0.0036 -2.17917,-0.116684 z m 1.26267,-9.169727 c 0.48086,-0.579395 0.39974,-1.875815 -0.14217,-2.272066 -0.61981,-0.453218 -1.49309,-0.429688 -1.97602,0.05324 -0.54003,0.540024 -0.51189,2.012969 0.0446,2.337118 0.65459,0.381263 1.70888,0.321116 2.07355,-0.118296 z"
       id="path54"
       transform="scale(0.26458333)" />
    <path
       style="opacity:1;fill:#00d4aa;fill-opacity:1;stroke:#000000;stroke-width:0.125;stroke-linecap:round;stroke-linejoin:miter;stroke-miterlimit:5;stroke-dasharray:none;stroke-opacity:1;paint-order:stroke markers fill"
       d="m 122.875,87.788822 c -2.50052,-0.746007 -4.0441,-1.684122 -6.00927,-3.652165 -2.83702,-2.84115 -4.24073,-6.263968 -4.24073,-10.340596 0,-4.125029 1.4106,-7.58678 4.24744,-10.423619 5.6751,-5.675095 14.10477,-5.67114 19.81112,0.0093 3.65373,3.637139 5.11062,8.418506 4.06666,13.346373 -0.9649,4.554656 -3.87077,8.281297 -8.00022,10.2599 -3.18336,1.52529 -6.53547,1.797127 -9.875,0.800812 z m 2.30051,-17.848945 c 0.5421,-0.5421 0.78935,-1.067182 0.87961,-1.868038 0.35839,-3.179549 -3.23173,-4.921432 -5.35903,-2.600143 -0.69238,0.755512 -0.8197,1.082687 -0.81223,2.087133 0.005,0.655144 0.15308,1.451073 0.32935,1.768732 0.95644,1.723573 3.5331,2.041517 4.9623,0.612316 z"
       id="path55"
       transform="scale(0.26458333)" />
    <path
       style="opacity:1;fill:#00d4aa;fill-opacity:1;stroke:#000000;stroke-width:0.125;stroke-linecap:round;stroke-linejoin:miter;stroke-miterlimit:5;stroke-dasharray:none;stroke-opacity:1;paint-order:stroke markers fill"
       d="m 101.12338,54.156406 c -3.665096,-1.202557 -5.610544,-4.998288 -4.481798,-8.744365 0.180299,-0.598377 0.809516,-1.623724 1.39826,-2.278549 3.276168,-3.643893 8.794028,-2.704064 10.862558,1.850164 0.61484,1.35369 0.61766,3.924048 0.006,5.266344 -1.10662,2.427577 -3.13238,3.881445 -5.60561,4.02309 -0.8539,0.0489 -1.83453,-0.0036 -2.17917,-0.116684 z m 1.04443,-8.945153 c 0.55961,-0.50644 0.58034,-1.049173 0.068,-1.780627 -0.42875,-0.612124 -1.56356,-0.752887 -2.06082,-0.255626 -0.165,0.165 -0.3,0.64875 -0.3,1.075 0,0.42625 0.135,0.91 0.3,1.075 0.42896,0.428963 1.45803,0.370225 1.99281,-0.113747 z"
       id="path56"
       transform="scale(0.26458333)" />
    <path
       style="opacity:1;fill:#00d4aa;fill-opacity:1;stroke:#000000;stroke-width:0.125;stroke-linecap:round;stroke-linejoin:miter;stroke-miterlimit:5;stroke-dasharray:none;stroke-opacity:1;paint-order:stroke markers fill"
       d="m 41.123381,104.15641 c -3.665097,-1.20256 -5.610544,-4.998292 -4.481799,-8.744369 0.180299,-0.598378 0.809516,-1.623725 1.39826,-2.278549 3.276173,-3.643893 8.794032,-2.704065 10.862555,1.850164 0.614844,1.353689 0.617659,3.924048 0.0058,5.266344 -1.106621,2.42758 -3.132384,3.88144 -5.605616,4.02309 -0.853902,0.0489 -1.834527,-0.004 -2.179168,-0.11668 z m 1.294434,-8.945157 c 0.569658,-0.515534 0.592604,-1.772246 0.04344,-2.379068 C 41.557235,91.833256 39.875,92.56461 39.875,93.956561 c 0,1.45205 1.50446,2.19439 2.542815,1.254692 z"
       id="path57"
       transform="scale(0.26458333)" />
    <path
       style="opacity:1;fill:#00d4aa;fill-opacity:1;stroke:#000000;stroke-width:0.0330729;stroke-linecap:round;stroke-linejoin:miter;stroke-miterlimit:5;stroke-dasharray:none;stroke-opacity:1;paint-order:stroke markers fill"
       d="M 3.3592861,12.667512 C 2.6976893,12.470131 2.2892851,12.221921 1.7693323,11.70121 1.0187063,10.949489 0.64730694,10.043868 0.64730694,8.9652604 c 0,-1.0914139 0.37322206,-2.0073355 1.12380226,-2.7579158 1.5015355,-1.5015355 3.7318862,-1.5004891 5.2416919,0.00246 0.967903,0.963507 1.3522203,2.2271453 1.0751553,3.535122 C 7.9239227,10.519301 7.5950178,11.116615 7.0128011,11.697478 5.9934485,12.714461 4.6829405,13.06241 3.3592861,12.667512 Z"
       id="path58" />
    <path
       style="opacity:1;fill:#00d4aa;fill-opacity:1;stroke:#000000;stroke-width:0.0330729;stroke-linecap:round;stroke-linejoin:miter;stroke-miterlimit:5;stroke-dasharray:none;stroke-opacity:1;paint-order:stroke markers fill"
       d="M 20.235899,4.9964785 C 19.266175,4.678302 18.751442,3.6740148 19.05009,2.6828652 c 0.0477,-0.1583206 0.214184,-0.4296103 0.369956,-0.602866 0.866821,-0.9641134 2.326754,-0.7154504 2.874051,0.4895225 0.162677,0.3581638 0.163422,1.0382378 0.0015,1.3933868 -0.292793,0.6422964 -0.828776,1.0269657 -1.483152,1.0644426 -0.225928,0.012939 -0.485385,-9.525e-4 -0.576571,-0.030873 z"
       id="path59" />
    <path
       style="opacity:1;fill:#00d4aa;fill-opacity:1;stroke:#000000;stroke-width:0.125;stroke-linecap:round;stroke-linejoin:miter;stroke-miterlimit:5;stroke-dasharray:none;stroke-opacity:1;paint-order:stroke markers fill"
       d="m 161.12338,34.156406 c -3.6651,-1.202557 -5.61054,-4.998288 -4.4818,-8.744365 0.1803,-0.598377 0.80952,-1.623724 1.39826,-2.278549 3.27617,-3.643893 8.79403,-2.704064 10.86256,1.850164 0.61484,1.35369 0.61766,3.924048 0.006,5.266344 -1.10662,2.427577 -3.13238,3.881445 -5.60561,4.02309 -0.8539,0.0489 -1.83453,-0.0036 -2.17917,-0.116684 z m 1.10876,-8.924263 c 0.85208,-0.852076 0.15234,-2.357143 -1.09589,-2.357143 -0.87062,0 -1.26125,0.425861 -1.26125,1.375 0,0.42625 0.135,0.91 0.3,1.075 0.42476,0.424756 1.59223,0.372057 2.05714,-0.09286 z"
       id="path60"
       transform="scale(0.26458333)" />
    <path
       style="opacity:1;fill:#00d4aa;fill-opacity:1;stroke:#000000;stroke-width:0.0330729;stroke-linecap:round;stroke-linejoin:miter;stroke-miterlimit:5;stroke-dasharray:none;stroke-opacity:1;paint-order:stroke markers fill"
       d="m 57.249218,13.437876 c -0.661596,-0.197381 -1.070002,-0.445591 -1.589953,-0.966302 -0.750628,-0.751721 -1.122026,-1.657342 -1.122026,-2.7359496 0,-1.0914139 0.373221,-2.0073356 1.123802,-2.7579159 1.501536,-1.5015355 3.731887,-1.5004891 5.241692,0.00246 0.967904,0.9635069 1.352219,2.2271452 1.075155,3.5351215 -0.164033,0.774375 -0.49294,1.371688 -1.075155,1.952552 -1.019353,1.016984 -2.32986,1.364933 -3.653515,0.970034 z"
       id="path61" />
    <ellipse
       style="fill:none;fill-opacity:1;stroke:#000000;stroke-width:0.0144982;stroke-linecap:round;stroke-linejoin:miter;stroke-miterlimit:5;stroke-dasharray:none;stroke-opacity:1;paint-order:stroke markers fill"
       id="ellipse33-7"
       cx="21.037123"
       cy="59.643467"
       rx="0.42544678"
       ry="0.43569848" />
    <path
       style="fill:#80ffe6;fill-opacity:1;stroke:#000000;stroke-width:0.0233861;stroke-linecap:round;stroke-linejoin:miter;stroke-miterlimit:5;stroke-dasharray:none;stroke-opacity:1;paint-order:stroke markers fill"
       d="m 20.944685,60.034691 c -0.165357,-0.05934 -0.280622,-0.217869 -0.279145,-0.383908 0.0016,-0.184123 0.06236,-0.287393 0.217605,-0.370078 0.151163,-0.08051 0.22578,-0.0676 0.385357,0.06667 0.113415,0.09543 0.143905,0.15812 0.143905,0.295868 0,0.248936 -0.259547,0.466156 -0.467722,0.391443 z"
       id="path39-3" />
    <ellipse
       style="fill:none;fill-opacity:1;stroke:#000000;stroke-width:0.0325208;stroke-linecap:round;stroke-linejoin:miter;stroke-miterlimit:5;stroke-dasharray:none;stroke-opacity:1;paint-order:stroke markers fill"
       id="ellipse33-8"
       cx="3.5302012"
       cy="7.2706604"
       rx="0.95431542"
       ry="0.9773109" />
    <path
       style="fill:#80ffe6;fill-opacity:1;stroke:#000000;stroke-width:0.0524571;stroke-linecap:round;stroke-linejoin:miter;stroke-miterlimit:5;stroke-dasharray:none;stroke-opacity:1;paint-order:stroke markers fill"
       d="M 3.3228543,8.148205 C 2.9519443,8.0150927 2.693393,7.6595066 2.6967058,7.2870655 2.7003845,6.8740597 2.8365849,6.6424169 3.1848145,6.4569472 3.5238863,6.276356 3.6912583,6.3053188 4.0492041,6.6065053 c 0.2544012,0.2140625 0.3227921,0.354678 0.3227921,0.6636576 0,0.5583856 -0.582188,1.0456303 -1.0491419,0.8780421 z"
       id="path39-37" />
    <ellipse
       style="fill:none;fill-opacity:1;stroke:#000000;stroke-width:0.0185576;stroke-linecap:round;stroke-linejoin:miter;stroke-miterlimit:5;stroke-dasharray:none;stroke-opacity:1;paint-order:stroke markers fill"
       id="ellipse33-0"
       cx="20.133015"
       cy="2.6836386"
       rx="0.54457009"
       ry="0.55769223" />
    <path
       style="fill:#80ffe6;fill-opacity:1;stroke:#000000;stroke-width:0.0299341;stroke-linecap:round;stroke-linejoin:miter;stroke-miterlimit:5;stroke-dasharray:none;stroke-opacity:1;paint-order:stroke markers fill"
       d="M 20.014695,3.1844006 C 19.80304,3.1084419 19.6555,2.90553 19.65739,2.6930004 c 0.002,-0.2356774 0.07982,-0.3678619 0.278534,-0.4736982 0.193488,-0.1030525 0.288997,-0.086525 0.493255,0.085344 0.145171,0.1221525 0.184198,0.2023933 0.184198,0.3787092 0,0.3186369 -0.332219,0.596678 -0.598682,0.5010452 z"
       id="path39-8" />
    <ellipse
       style="fill:none;fill-opacity:1;stroke:#000000;stroke-width:0.0370791;stroke-linecap:round;stroke-linejoin:miter;stroke-miterlimit:5;stroke-dasharray:none;stroke-opacity:1;paint-order:stroke markers fill"
       id="ellipse33-9"
       cx="58.521202"
       cy="8.2765875"
       rx="1.0880789"
       ry="1.1142975" />
    <path
       style="fill:#80ffe6;fill-opacity:1;stroke:#000000;stroke-width:0.0598099;stroke-linecap:round;stroke-linejoin:miter;stroke-miterlimit:5;stroke-dasharray:none;stroke-opacity:1;paint-order:stroke markers fill"
       d="M 58.284792,9.2771359 C 57.861895,9.1253664 57.567102,8.7199382 57.57088,8.2952932 c 0.0041,-0.4708956 0.159485,-0.735007 0.556524,-0.9464734 0.386599,-0.205904 0.577431,-0.1728816 0.985549,0.1705211 0.290059,0.2440696 0.368037,0.4043922 0.368037,0.7566805 0,0.6366528 -0.663791,1.192193 -1.196198,1.0011145 z"
       id="path39-4" />
  </g>
</svg>
